<?xml version="1.0" encoding="UTF-8" standalone="no"?>
<!DOCTYPE svg PUBLIC "-//W3C//DTD SVG 1.1//EN"
 "http://www.w3.org/Graphics/SVG/1.1/DTD/svg11.dtd">
<!-- Generated by graphviz version 2.30.1 (20180420.1509)
 -->
<!-- Title: RNASCP Pages: 1 -->
<svg width="1533pt" height="836pt"
 viewBox="0.00 0.00 1533.00 836.00" xmlns="http://www.w3.org/2000/svg" xmlns:xlink="http://www.w3.org/1999/xlink">
<g id="RNASCP" class="graph" transform="scale(1 1) rotate(0) translate(4 832)">
<title>RNASCP</title>
<polygon fill="white" stroke="white" points="-4,5 -4,-832 1530,-832 1530,5 -4,5"/>
<!-- RNASCP.SAMPLE_SETUP -->
<g id="RNASCP.SAMPLE_SETUP" class="node"><title>RNASCP.SAMPLE_SETUP</title>
<ellipse fill="none" stroke="#5d18a5" cx="160" cy="-810" rx="77.0154" ry="18"/>
<text text-anchor="middle" x="160" y="-806.3" font-family="Times,serif" font-size="14.00">SAMPLE_SETUP</text>
</g>
<!-- RNASCP.RUN_QC -->
<g id="RNASCP.RUN_QC" class="node"><title>RNASCP.RUN_QC</title>
<ellipse fill="none" stroke="#29a518" cx="160" cy="-738" rx="46.2191" ry="18"/>
<text text-anchor="middle" x="160" y="-734.3" font-family="Times,serif" font-size="14.00">RUN_QC</text>
</g>
<!-- RNASCP.SAMPLE_SETUP&#45;&gt;RNASCP.RUN_QC -->
<g id="RNASCP_edge1" class="edge"><title>RNASCP.SAMPLE_SETUP&#45;&gt;RNASCP.RUN_QC</title>
<path fill="none" stroke="#29a518" d="M160,-791.697C160,-783.983 160,-774.712 160,-766.112"/>
<polygon fill="#29a518" stroke="#29a518" points="163.5,-766.104 160,-756.104 156.5,-766.104 163.5,-766.104"/>
</g>
<!-- RNASCP.VELOCITY -->
<g id="RNASCP.VELOCITY" class="node"><title>RNASCP.VELOCITY</title>
<ellipse fill="none" stroke="#18a58e" cx="54" cy="-378" rx="54.3924" ry="18"/>
<text text-anchor="middle" x="54" y="-374.3" font-family="Times,serif" font-size="14.00">VELOCITY</text>
</g>
<!-- RNASCP.SAMPLE_SETUP&#45;&gt;RNASCP.VELOCITY -->
<g id="RNASCP_edge8" class="edge"><title>RNASCP.SAMPLE_SETUP&#45;&gt;RNASCP.VELOCITY</title>
<path fill="none" stroke="#18a58e" d="M127.88,-793.541C87.3865,-771.546 23,-727.119 23,-667 23,-667 23,-667 23,-521 23,-480.098 35.4284,-434.063 44.5464,-405.793"/>
<polygon fill="#18a58e" stroke="#18a58e" points="47.8941,-406.817 47.7267,-396.224 41.2513,-404.61 47.8941,-406.817"/>
</g>
<!-- RNASCP.MERGE_SAMPLES -->
<g id="RNASCP.MERGE_SAMPLES" class="node"><title>RNASCP.MERGE_SAMPLES</title>
<ellipse fill="none" stroke="#1835a5" cx="251" cy="-450" rx="86.1637" ry="18"/>
<text text-anchor="middle" x="251" y="-446.3" font-family="Times,serif" font-size="14.00">MERGE_SAMPLES</text>
</g>
<!-- RNASCP.SAMPLE_SETUP&#45;&gt;RNASCP.MERGE_SAMPLES -->
<g id="RNASCP_edge10" class="edge"><title>RNASCP.SAMPLE_SETUP&#45;&gt;RNASCP.MERGE_SAMPLES</title>
<path fill="none" stroke="#1835a5" d="M218.299,-798.179C284.372,-782.152 383,-745.141 383,-667 383,-667 383,-667 383,-593 383,-538.468 330.133,-496.086 291.313,-472.316"/>
<polygon fill="#1835a5" stroke="#1835a5" points="292.669,-469.051 282.282,-466.961 289.099,-475.072 292.669,-469.051"/>
</g>
<!-- RNASCP.DETECT_DOUBLETS -->
<g id="RNASCP.DETECT_DOUBLETS" class="node"><title>RNASCP.DETECT_DOUBLETS</title>
<ellipse fill="none" stroke="#187ea5" cx="222" cy="-666" rx="94.338" ry="18"/>
<text text-anchor="middle" x="222" y="-662.3" font-family="Times,serif" font-size="14.00">DETECT_DOUBLETS</text>
</g>
<!-- RNASCP.RUN_QC&#45;&gt;RNASCP.DETECT_DOUBLETS -->
<g id="RNASCP_edge2" class="edge"><title>RNASCP.RUN_QC&#45;&gt;RNASCP.DETECT_DOUBLETS</title>
<path fill="none" stroke="#187ea5" d="M174.38,-720.765C181.982,-712.182 191.476,-701.462 199.983,-691.858"/>
<polygon fill="#187ea5" stroke="#187ea5" points="202.823,-693.93 206.833,-684.124 197.583,-689.289 202.823,-693.93"/>
</g>
<!-- RNASCP.FILTER_DOUBLETS -->
<g id="RNASCP.FILTER_DOUBLETS" class="node"><title>RNASCP.FILTER_DOUBLETS</title>
<ellipse fill="none" stroke="#185ea5" cx="184" cy="-594" rx="90.4879" ry="18"/>
<text text-anchor="middle" x="184" y="-590.3" font-family="Times,serif" font-size="14.00">FILTER_DOUBLETS</text>
</g>
<!-- RNASCP.RUN_QC&#45;&gt;RNASCP.FILTER_DOUBLETS -->
<g id="RNASCP_edge4" class="edge"><title>RNASCP.RUN_QC&#45;&gt;RNASCP.FILTER_DOUBLETS</title>
<path fill="none" stroke="#185ea5" d="M142.706,-721.144C133.441,-711.442 122.941,-698.192 118,-684 112.739,-668.89 111.082,-662.427 118,-648 123.974,-635.54 134.464,-625.083 145.347,-616.838"/>
<polygon fill="#185ea5" stroke="#185ea5" points="147.518,-619.589 153.677,-610.968 143.486,-613.867 147.518,-619.589"/>
</g>
<!-- RNASCP.RUN_QC&#45;&gt;RNASCP.VELOCITY -->
<g id="RNASCP_edge7" class="edge"><title>RNASCP.RUN_QC&#45;&gt;RNASCP.VELOCITY</title>
<path fill="none" stroke="#18a58e" d="M139.487,-721.584C110.489,-697.857 61,-649.396 61,-595 61,-595 61,-595 61,-521 61,-480.947 58.1875,-434.617 56.128,-406.06"/>
<polygon fill="#18a58e" stroke="#18a58e" points="59.6146,-405.749 55.383,-396.036 52.6339,-406.268 59.6146,-405.749"/>
</g>
<!-- RNASCP.SUMMARIZE_SAMPLE_QC -->
<g id="RNASCP.SUMMARIZE_SAMPLE_QC" class="node"><title>RNASCP.SUMMARIZE_SAMPLE_QC</title>
<ellipse fill="none" stroke="#a55d18" cx="476" cy="-450" rx="120.359" ry="18"/>
<text text-anchor="middle" x="476" y="-446.3" font-family="Times,serif" font-size="14.00">SUMMARIZE_SAMPLE_QC</text>
</g>
<!-- RNASCP.RUN_QC&#45;&gt;RNASCP.SUMMARIZE_SAMPLE_QC -->
<g id="RNASCP_edge16" class="edge"><title>RNASCP.RUN_QC&#45;&gt;RNASCP.SUMMARIZE_SAMPLE_QC</title>
<path fill="none" stroke="#a55d18" d="M203.007,-731.374C238.673,-724.912 289.162,-711.431 325,-684 398.08,-628.064 446.141,-525.968 465.854,-477.673"/>
<polygon fill="#a55d18" stroke="#a55d18" points="469.171,-478.805 469.629,-468.22 462.67,-476.209 469.171,-478.805"/>
</g>
<!-- RNASCP.DETECT_DOUBLETS&#45;&gt;RNASCP.FILTER_DOUBLETS -->
<g id="RNASCP_edge3" class="edge"><title>RNASCP.DETECT_DOUBLETS&#45;&gt;RNASCP.FILTER_DOUBLETS</title>
<path fill="none" stroke="#185ea5" d="M212.801,-648.055C208.432,-640.007 203.111,-630.205 198.237,-621.226"/>
<polygon fill="#185ea5" stroke="#185ea5" points="201.225,-619.394 193.378,-612.275 195.073,-622.734 201.225,-619.394"/>
</g>
<!-- RNASCP.DETECT_DOUBLETS&#45;&gt;RNASCP.SUMMARIZE_SAMPLE_QC -->
<g id="RNASCP_edge15" class="edge"><title>RNASCP.DETECT_DOUBLETS&#45;&gt;RNASCP.SUMMARIZE_SAMPLE_QC</title>
<path fill="none" stroke="#a55d18" d="M245.678,-648.414C258.02,-638.858 272.655,-625.986 283,-612 314.236,-569.769 292.62,-539.862 331,-504 348.907,-487.268 372.52,-475.727 395.479,-467.803"/>
<polygon fill="#a55d18" stroke="#a55d18" points="396.832,-471.044 405.26,-464.624 394.668,-464.387 396.832,-471.044"/>
</g>
<!-- RNASCP.CELLCYCLE_SCORE -->
<g id="RNASCP.CELLCYCLE_SCORE" class="node"><title>RNASCP.CELLCYCLE_SCORE</title>
<ellipse fill="none" stroke="#183aa5" cx="184" cy="-522" rx="94.3628" ry="18"/>
<text text-anchor="middle" x="184" y="-518.3" font-family="Times,serif" font-size="14.00">CELLCYCLE_SCORE</text>
</g>
<!-- RNASCP.FILTER_DOUBLETS&#45;&gt;RNASCP.CELLCYCLE_SCORE -->
<g id="RNASCP_edge5" class="edge"><title>RNASCP.FILTER_DOUBLETS&#45;&gt;RNASCP.CELLCYCLE_SCORE</title>
<path fill="none" stroke="#183aa5" d="M184,-575.697C184,-567.983 184,-558.712 184,-550.112"/>
<polygon fill="#183aa5" stroke="#183aa5" points="187.5,-550.104 184,-540.104 180.5,-550.104 187.5,-550.104"/>
</g>
<!-- RNASCP.CELLTYPE_MARKERS -->
<g id="RNASCP.CELLTYPE_MARKERS" class="node"><title>RNASCP.CELLTYPE_MARKERS</title>
<ellipse fill="none" stroke="#a58318" cx="751" cy="-522" rx="102.061" ry="18"/>
<text text-anchor="middle" x="751" y="-518.3" font-family="Times,serif" font-size="14.00">CELLTYPE_MARKERS</text>
</g>
<!-- RNASCP.ASSIGN_CELLTYPES -->
<g id="RNASCP.ASSIGN_CELLTYPES" class="node"><title>RNASCP.ASSIGN_CELLTYPES</title>
<ellipse fill="none" stroke="#a54d18" cx="1154" cy="-378" rx="95.3122" ry="18"/>
<text text-anchor="middle" x="1154" y="-374.3" font-family="Times,serif" font-size="14.00">ASSIGN_CELLTYPES</text>
</g>
<!-- RNASCP.CELLTYPE_MARKERS&#45;&gt;RNASCP.ASSIGN_CELLTYPES -->
<g id="RNASCP_edge11" class="edge"><title>RNASCP.CELLTYPE_MARKERS&#45;&gt;RNASCP.ASSIGN_CELLTYPES</title>
<path fill="none" stroke="#a54d18" d="M794.511,-505.669C869.124,-479.378 1021.19,-425.797 1101.54,-397.484"/>
<polygon fill="#a54d18" stroke="#a54d18" points="1102.71,-400.785 1110.98,-394.16 1100.38,-394.182 1102.71,-400.785"/>
</g>
<!-- RNASCP.CELLTYPE_MARKERS&#45;&gt;RNASCP.SUMMARIZE_SAMPLE_QC -->
<g id="RNASCP_edge14" class="edge"><title>RNASCP.CELLTYPE_MARKERS&#45;&gt;RNASCP.SUMMARIZE_SAMPLE_QC</title>
<path fill="none" stroke="#a55d18" d="M695.35,-506.834C651.686,-495.72 590.708,-480.199 544.125,-468.341"/>
<polygon fill="#a55d18" stroke="#a55d18" points="544.969,-464.944 534.415,-465.869 543.243,-471.728 544.969,-464.944"/>
</g>
<!-- RNASCP.CELLCYCLE_SCORE&#45;&gt;RNASCP.VELOCITY -->
<g id="RNASCP_edge6" class="edge"><title>RNASCP.CELLCYCLE_SCORE&#45;&gt;RNASCP.VELOCITY</title>
<path fill="none" stroke="#18a58e" d="M162.754,-504.286C150.588,-494.297 135.338,-481.047 123,-468 103.865,-447.766 84.6622,-422.495 71.3908,-404.056"/>
<polygon fill="#18a58e" stroke="#18a58e" points="74.2055,-401.975 65.5555,-395.857 68.5024,-406.034 74.2055,-401.975"/>
</g>
<!-- RNASCP.CELLCYCLE_SCORE&#45;&gt;RNASCP.MERGE_SAMPLES -->
<g id="RNASCP_edge9" class="edge"><title>RNASCP.CELLCYCLE_SCORE&#45;&gt;RNASCP.MERGE_SAMPLES</title>
<path fill="none" stroke="#1835a5" d="M200.219,-504.055C208.531,-495.371 218.798,-484.644 227.92,-475.114"/>
<polygon fill="#1835a5" stroke="#1835a5" points="230.544,-477.433 234.931,-467.789 225.487,-472.593 230.544,-477.433"/>
</g>
<!-- RNASCP.CELLCYCLE_SCORE&#45;&gt;RNASCP.SUMMARIZE_SAMPLE_QC -->
<g id="RNASCP_edge13" class="edge"><title>RNASCP.CELLCYCLE_SCORE&#45;&gt;RNASCP.SUMMARIZE_SAMPLE_QC</title>
<path fill="none" stroke="#a55d18" d="M240.301,-507.503C287.377,-496.218 354.768,-480.062 405.441,-467.915"/>
<polygon fill="#a55d18" stroke="#a55d18" points="406.434,-471.276 415.342,-465.541 404.802,-464.469 406.434,-471.276"/>
</g>
<!-- Outputs -->
<g id="RNASCP_node20" class="node"><title>Outputs</title>
<ellipse fill="none" stroke="black" cx="616" cy="-18" rx="38.0212" ry="18"/>
<text text-anchor="middle" x="616" y="-14.3" font-family="Times,serif" font-size="14.00">Outputs</text>
</g>
<!-- RNASCP.CELLCYCLE_SCORE&#45;&gt;Outputs -->
<g id="RNASCP_edge41" class="edge"><title>RNASCP.CELLCYCLE_SCORE&#45;&gt;Outputs</title>
<path fill="none" stroke="black" stroke-dasharray="5,2" d="M172.92,-504.054C166.894,-493.989 159.894,-480.739 156,-468 134.858,-398.83 81.4439,-201.744 125,-144 178.807,-72.6668 456.433,-35.8294 568.754,-23.6611"/>
<polygon fill="black" stroke="black" points="569.205,-27.1329 578.778,-22.5933 568.463,-20.1723 569.205,-27.1329"/>
</g>
<!-- RNASCP.CELLTYPE_VELOCITY -->
<g id="RNASCP.CELLTYPE_VELOCITY" class="node"><title>RNASCP.CELLTYPE_VELOCITY</title>
<ellipse fill="none" stroke="#2918a5" cx="1280" cy="-162" rx="102.536" ry="18"/>
<text text-anchor="middle" x="1280" y="-158.3" font-family="Times,serif" font-size="14.00">CELLTYPE_VELOCITY</text>
</g>
<!-- RNASCP.VELOCITY&#45;&gt;RNASCP.CELLTYPE_VELOCITY -->
<g id="RNASCP_edge21" class="edge"><title>RNASCP.VELOCITY&#45;&gt;RNASCP.CELLTYPE_VELOCITY</title>
<path fill="none" stroke="#2918a5" d="M108.408,-376.387C309.865,-373.825 1006.48,-362.257 1098,-324 1163.59,-296.58 1162.38,-262.687 1216,-216 1227.47,-206.013 1240.34,-195.265 1251.52,-186.075"/>
<polygon fill="#2918a5" stroke="#2918a5" points="1253.8,-188.735 1259.32,-179.692 1249.36,-183.319 1253.8,-188.735"/>
</g>
<!-- RNASCP.GENERATE_REPORT -->
<g id="RNASCP.GENERATE_REPORT" class="node"><title>RNASCP.GENERATE_REPORT</title>
<ellipse fill="none" stroke="#a51877" cx="785" cy="-90" rx="94.338" ry="18"/>
<text text-anchor="middle" x="785" y="-86.3" font-family="Times,serif" font-size="14.00">GENERATE_REPORT</text>
</g>
<!-- RNASCP.VELOCITY&#45;&gt;RNASCP.GENERATE_REPORT -->
<g id="RNASCP_edge38" class="edge"><title>RNASCP.VELOCITY&#45;&gt;RNASCP.GENERATE_REPORT</title>
<path fill="none" stroke="#a51877" d="M78.1828,-361.615C128.587,-329.323 248.156,-251.541 344,-180 364.248,-164.886 364.819,-154.054 388,-144 440.193,-121.364 587.86,-106.011 687.627,-97.8798"/>
<polygon fill="#a51877" stroke="#a51877" points="688.043,-101.358 697.73,-97.0675 687.482,-94.3802 688.043,-101.358"/>
</g>
<!-- RNASCP.VELOCITY&#45;&gt;Outputs -->
<g id="RNASCP_edge44" class="edge"><title>RNASCP.VELOCITY&#45;&gt;Outputs</title>
<path fill="none" stroke="black" stroke-dasharray="5,2" d="M56.1732,-359.984C59.379,-333.369 65,-280.25 65,-235 65,-235 65,-235 65,-161 65,-119.664 60.0812,-98.2647 92,-72 128.318,-42.115 444.746,-26.0321 567.561,-20.87"/>
<polygon fill="black" stroke="black" points="567.948,-24.3571 577.795,-20.4464 567.659,-17.363 567.948,-24.3571"/>
</g>
<!-- RNASCP.MERGE_SAMPLES&#45;&gt;RNASCP.ASSIGN_CELLTYPES -->
<g id="RNASCP_edge12" class="edge"><title>RNASCP.MERGE_SAMPLES&#45;&gt;RNASCP.ASSIGN_CELLTYPES</title>
<path fill="none" stroke="#a54d18" d="M311.791,-437.198C323.444,-435.23 335.574,-433.383 347,-432 598.567,-401.558 896.519,-387.697 1050.42,-382.168"/>
<polygon fill="#a54d18" stroke="#a54d18" points="1050.93,-385.652 1060.8,-381.8 1050.68,-378.657 1050.93,-385.652"/>
</g>
<!-- RNASCP.MERGE_BATCHES -->
<g id="RNASCP.MERGE_BATCHES" class="node"><title>RNASCP.MERGE_BATCHES</title>
<ellipse fill="none" stroke="#38a518" cx="1003" cy="-306" rx="86.1637" ry="18"/>
<text text-anchor="middle" x="1003" y="-302.3" font-family="Times,serif" font-size="14.00">MERGE_BATCHES</text>
</g>
<!-- RNASCP.ASSIGN_CELLTYPES&#45;&gt;RNASCP.MERGE_BATCHES -->
<g id="RNASCP_edge17" class="edge"><title>RNASCP.ASSIGN_CELLTYPES&#45;&gt;RNASCP.MERGE_BATCHES</title>
<path fill="none" stroke="#38a518" d="M1119.74,-361.116C1097.86,-350.976 1069.33,-337.749 1045.95,-326.91"/>
<polygon fill="#38a518" stroke="#38a518" points="1047.15,-323.611 1036.61,-322.58 1044.21,-329.961 1047.15,-323.611"/>
</g>
<!-- RNASCP.COPY_NUMBER -->
<g id="RNASCP.COPY_NUMBER" class="node"><title>RNASCP.COPY_NUMBER</title>
<ellipse fill="none" stroke="#18a576" cx="1302" cy="-234" rx="76.5394" ry="18"/>
<text text-anchor="middle" x="1302" y="-230.3" font-family="Times,serif" font-size="14.00">COPY_NUMBER</text>
</g>
<!-- RNASCP.ASSIGN_CELLTYPES&#45;&gt;RNASCP.COPY_NUMBER -->
<g id="RNASCP_edge22" class="edge"><title>RNASCP.ASSIGN_CELLTYPES&#45;&gt;RNASCP.COPY_NUMBER</title>
<path fill="none" stroke="#18a576" d="M1171.56,-360.153C1197.71,-335.066 1247,-287.77 1276.93,-259.05"/>
<polygon fill="#18a576" stroke="#18a576" points="1279.67,-261.274 1284.46,-251.825 1274.83,-256.223 1279.67,-261.274"/>
</g>
<!-- RNASCP.ASSIGN_CELLTYPES&#45;&gt;RNASCP.GENERATE_REPORT -->
<g id="RNASCP_edge29" class="edge"><title>RNASCP.ASSIGN_CELLTYPES&#45;&gt;RNASCP.GENERATE_REPORT</title>
<path fill="none" stroke="#a51877" d="M1195.06,-361.757C1285.87,-325.932 1489.47,-232.692 1408,-144 1373.68,-106.64 1057.3,-95.5814 889.084,-92.3336"/>
<polygon fill="#a51877" stroke="#a51877" points="889.027,-88.8321 878.963,-92.1442 888.896,-95.8308 889.027,-88.8321"/>
</g>
<!-- RNASCP.ASSIGN_CELLTYPES&#45;&gt;Outputs -->
<g id="RNASCP_edge39" class="edge"><title>RNASCP.ASSIGN_CELLTYPES&#45;&gt;Outputs</title>
<path fill="none" stroke="black" stroke-dasharray="5,2" d="M1222.05,-365.342C1329.15,-345.037 1525,-299.139 1525,-235 1525,-235 1525,-235 1525,-161 1525,-62.8945 1418.18,-95.788 1323,-72 1197.74,-40.6944 803.001,-25.1056 664.559,-20.4974"/>
<polygon fill="black" stroke="black" points="664.379,-16.9898 654.27,-20.1596 664.149,-23.986 664.379,-16.9898"/>
</g>
<!-- RNASCP.SUMMARIZE_SAMPLE_QC&#45;&gt;RNASCP.GENERATE_REPORT -->
<g id="RNASCP_edge37" class="edge"><title>RNASCP.SUMMARIZE_SAMPLE_QC&#45;&gt;RNASCP.GENERATE_REPORT</title>
<path fill="none" stroke="#a51877" d="M460.307,-432.116C438.584,-406.913 402,-357.039 402,-307 402,-307 402,-307 402,-233 402,-192.553 391.475,-171.645 421,-144 457.713,-109.625 587.046,-97.4862 681.127,-93.2341"/>
<polygon fill="#a51877" stroke="#a51877" points="681.424,-96.7247 691.265,-92.8 681.124,-89.7311 681.424,-96.7247"/>
</g>
<!-- RNASCP.SUBSET_CELLTYPES -->
<g id="RNASCP.SUBSET_CELLTYPES" class="node"><title>RNASCP.SUBSET_CELLTYPES</title>
<ellipse fill="none" stroke="#1853a5" cx="1003" cy="-234" rx="96.2631" ry="18"/>
<text text-anchor="middle" x="1003" y="-230.3" font-family="Times,serif" font-size="14.00">SUBSET_CELLTYPES</text>
</g>
<!-- RNASCP.MERGE_BATCHES&#45;&gt;RNASCP.SUBSET_CELLTYPES -->
<g id="RNASCP_edge18" class="edge"><title>RNASCP.MERGE_BATCHES&#45;&gt;RNASCP.SUBSET_CELLTYPES</title>
<path fill="none" stroke="#1853a5" d="M1003,-287.697C1003,-279.983 1003,-270.712 1003,-262.112"/>
<polygon fill="#1853a5" stroke="#1853a5" points="1006.5,-262.104 1003,-252.104 999.5,-262.104 1006.5,-262.104"/>
</g>
<!-- RNASCP.MERGE_BATCHES&#45;&gt;RNASCP.CELLTYPE_VELOCITY -->
<g id="RNASCP_edge19" class="edge"><title>RNASCP.MERGE_BATCHES&#45;&gt;RNASCP.CELLTYPE_VELOCITY</title>
<path fill="none" stroke="#2918a5" d="M1034.84,-289.259C1055.73,-278.851 1083.59,-264.813 1108,-252 1137.58,-236.47 1144.39,-231.474 1174,-216 1194.84,-205.109 1218.2,-193.379 1237.68,-183.729"/>
<polygon fill="#2918a5" stroke="#2918a5" points="1239.49,-186.74 1246.9,-179.172 1236.38,-180.465 1239.49,-186.74"/>
</g>
<!-- RNASCP.BATCH_CORRECTION -->
<g id="RNASCP.BATCH_CORRECTION" class="node"><title>RNASCP.BATCH_CORRECTION</title>
<ellipse fill="none" stroke="#183ea5" cx="235" cy="-162" rx="100.611" ry="18"/>
<text text-anchor="middle" x="235" y="-158.3" font-family="Times,serif" font-size="14.00">BATCH_CORRECTION</text>
</g>
<!-- RNASCP.MERGE_BATCHES&#45;&gt;RNASCP.BATCH_CORRECTION -->
<g id="RNASCP_edge23" class="edge"><title>RNASCP.MERGE_BATCHES&#45;&gt;RNASCP.BATCH_CORRECTION</title>
<path fill="none" stroke="#183ea5" d="M940.802,-293.5C801.52,-267.747 464.849,-205.498 312.357,-177.303"/>
<polygon fill="#183ea5" stroke="#183ea5" points="312.612,-173.791 302.142,-175.414 311.339,-180.674 312.612,-173.791"/>
</g>
<!-- RNASCP.CELL_CELL_INTERACTIONS -->
<g id="RNASCP.CELL_CELL_INTERACTIONS" class="node"><title>RNASCP.CELL_CELL_INTERACTIONS</title>
<ellipse fill="none" stroke="#a59818" cx="557" cy="-162" rx="127.083" ry="18"/>
<text text-anchor="middle" x="557" y="-158.3" font-family="Times,serif" font-size="14.00">CELL_CELL_INTERACTIONS</text>
</g>
<!-- RNASCP.MERGE_BATCHES&#45;&gt;RNASCP.CELL_CELL_INTERACTIONS -->
<g id="RNASCP_edge25" class="edge"><title>RNASCP.MERGE_BATCHES&#45;&gt;RNASCP.CELL_CELL_INTERACTIONS</title>
<path fill="none" stroke="#a59818" d="M957.781,-290.603C876.561,-264.744 706.057,-210.458 615.854,-181.738"/>
<polygon fill="#a59818" stroke="#a59818" points="616.647,-178.318 606.057,-178.619 614.523,-184.988 616.647,-178.318"/>
</g>
<!-- RNASCP.SUBTYPE_SCORE -->
<g id="RNASCP.SUBTYPE_SCORE" class="node"><title>RNASCP.SUBTYPE_SCORE</title>
<ellipse fill="none" stroke="#55a518" cx="785" cy="-162" rx="82.3139" ry="18"/>
<text text-anchor="middle" x="785" y="-158.3" font-family="Times,serif" font-size="14.00">SUBTYPE_SCORE</text>
</g>
<!-- RNASCP.MERGE_BATCHES&#45;&gt;RNASCP.SUBTYPE_SCORE -->
<g id="RNASCP_edge27" class="edge"><title>RNASCP.MERGE_BATCHES&#45;&gt;RNASCP.SUBTYPE_SCORE</title>
<path fill="none" stroke="#55a518" d="M967.633,-289.571C946.536,-279.821 919.554,-266.379 897,-252 865.852,-232.142 833.091,-205.317 811.106,-186.323"/>
<polygon fill="#55a518" stroke="#55a518" points="813.355,-183.64 803.517,-179.707 808.755,-188.916 813.355,-183.64"/>
</g>
<!-- RNASCP.MERGE_BATCHES&#45;&gt;Outputs -->
<g id="RNASCP_edge43" class="edge"><title>RNASCP.MERGE_BATCHES&#45;&gt;Outputs</title>
<path fill="none" stroke="black" stroke-dasharray="5,2" d="M1088.79,-303.744C1188.11,-300.517 1343.63,-289.432 1387,-252 1424.02,-220.049 1439.77,-181.174 1408,-144 1311.09,-30.5945 821.32,-19.4623 664.428,-18.8433"/>
<polygon fill="black" stroke="black" points="664.159,-15.3426 654.149,-18.8161 664.14,-22.3426 664.159,-15.3426"/>
</g>
<!-- RNASCP.SUBSET_CELLTYPES&#45;&gt;RNASCP.CELLTYPE_VELOCITY -->
<g id="RNASCP_edge20" class="edge"><title>RNASCP.SUBSET_CELLTYPES&#45;&gt;RNASCP.CELLTYPE_VELOCITY</title>
<path fill="none" stroke="#2918a5" d="M1057.73,-219.17C1102.62,-207.825 1166.33,-191.726 1214.04,-179.669"/>
<polygon fill="#2918a5" stroke="#2918a5" points="1215.13,-183.004 1223.96,-177.161 1213.41,-176.218 1215.13,-183.004"/>
</g>
<!-- RNASCP.ENRICHMENT_NETWORK -->
<g id="RNASCP.ENRICHMENT_NETWORK" class="node"><title>RNASCP.ENRICHMENT_NETWORK</title>
<ellipse fill="none" stroke="#a51873" cx="1003" cy="-162" rx="117.459" ry="18"/>
<text text-anchor="middle" x="1003" y="-158.3" font-family="Times,serif" font-size="14.00">ENRICHMENT_NETWORK</text>
</g>
<!-- RNASCP.SUBSET_CELLTYPES&#45;&gt;RNASCP.ENRICHMENT_NETWORK -->
<g id="RNASCP_edge24" class="edge"><title>RNASCP.SUBSET_CELLTYPES&#45;&gt;RNASCP.ENRICHMENT_NETWORK</title>
<path fill="none" stroke="#a51873" d="M1003,-215.697C1003,-207.983 1003,-198.712 1003,-190.112"/>
<polygon fill="#a51873" stroke="#a51873" points="1006.5,-190.104 1003,-180.104 999.5,-190.104 1006.5,-190.104"/>
</g>
<!-- RNASCP.SUBSET_CELLTYPES&#45;&gt;RNASCP.CELL_CELL_INTERACTIONS -->
<g id="RNASCP_edge26" class="edge"><title>RNASCP.SUBSET_CELLTYPES&#45;&gt;RNASCP.CELL_CELL_INTERACTIONS</title>
<path fill="none" stroke="#a59818" d="M931.837,-221.831C855.149,-209.795 732.837,-190.598 648.92,-177.427"/>
<polygon fill="#a59818" stroke="#a59818" points="649.304,-173.944 638.882,-175.851 648.218,-180.86 649.304,-173.944"/>
</g>
<!-- RNASCP.SUBSET_CELLTYPES&#45;&gt;RNASCP.SUBTYPE_SCORE -->
<g id="RNASCP_edge28" class="edge"><title>RNASCP.SUBSET_CELLTYPES&#45;&gt;RNASCP.SUBTYPE_SCORE</title>
<path fill="none" stroke="#55a518" d="M956.768,-218.155C922.381,-207.113 875.35,-192.011 839.194,-180.402"/>
<polygon fill="#55a518" stroke="#55a518" points="839.896,-176.951 829.304,-177.226 837.755,-183.616 839.896,-176.951"/>
</g>
<!-- RNASCP.SUBSET_CELLTYPES&#45;&gt;RNASCP.GENERATE_REPORT -->
<g id="RNASCP_edge35" class="edge"><title>RNASCP.SUBSET_CELLTYPES&#45;&gt;RNASCP.GENERATE_REPORT</title>
<path fill="none" stroke="#a51877" d="M1069.07,-220.877C1091.99,-213.16 1115.34,-200.559 1129,-180 1137.85,-166.672 1139.42,-156.145 1129,-144 1098.51,-108.448 978.795,-96.5184 889.104,-92.6388"/>
<polygon fill="#a51877" stroke="#a51877" points="889.008,-89.1322 878.874,-92.2252 888.725,-96.1264 889.008,-89.1322"/>
</g>
<!-- RNASCP.CELLTYPE_VELOCITY&#45;&gt;RNASCP.GENERATE_REPORT -->
<g id="RNASCP_edge31" class="edge"><title>RNASCP.CELLTYPE_VELOCITY&#45;&gt;RNASCP.GENERATE_REPORT</title>
<path fill="none" stroke="#a51877" d="M1203.85,-149.88C1190.25,-147.909 1176.21,-145.885 1163,-144 1061.92,-129.57 945.581,-113.311 868.969,-102.651"/>
<polygon fill="#a51877" stroke="#a51877" points="869.282,-99.1611 858.895,-101.25 868.317,-106.094 869.282,-99.1611"/>
</g>
<!-- RNASCP.COPY_NUMBER&#45;&gt;RNASCP.GENERATE_REPORT -->
<g id="RNASCP_edge33" class="edge"><title>RNASCP.COPY_NUMBER&#45;&gt;RNASCP.GENERATE_REPORT</title>
<path fill="none" stroke="#a51877" d="M1343.96,-218.84C1361.78,-210.501 1380.78,-197.98 1391,-180 1398.91,-166.09 1401.81,-155.796 1391,-144 1357.83,-107.798 1053.01,-96.2238 888.758,-92.6009"/>
<polygon fill="#a51877" stroke="#a51877" points="888.702,-89.099 878.629,-92.3837 888.552,-96.0974 888.702,-89.099"/>
</g>
<!-- RNASCP.BATCH_CORRECTION&#45;&gt;RNASCP.GENERATE_REPORT -->
<g id="RNASCP_edge30" class="edge"><title>RNASCP.BATCH_CORRECTION&#45;&gt;RNASCP.GENERATE_REPORT</title>
<path fill="none" stroke="#a51877" d="M308.887,-149.793C322.548,-147.802 336.699,-145.793 350,-144 469.789,-127.851 608.438,-111.333 696.399,-101.124"/>
<polygon fill="#a51877" stroke="#a51877" points="696.808,-104.6 706.339,-99.9723 696.002,-97.6467 696.808,-104.6"/>
</g>
<!-- RNASCP.BATCH_CORRECTION&#45;&gt;Outputs -->
<g id="RNASCP_edge40" class="edge"><title>RNASCP.BATCH_CORRECTION&#45;&gt;Outputs</title>
<path fill="none" stroke="black" stroke-dasharray="5,2" d="M276.499,-145.533C350.732,-117.866 505.218,-60.289 577.345,-33.407"/>
<polygon fill="black" stroke="black" points="578.81,-36.5959 586.958,-29.8239 576.366,-30.0367 578.81,-36.5959"/>
</g>
<!-- RNASCP.ENRICHMENT_NETWORK&#45;&gt;RNASCP.GENERATE_REPORT -->
<g id="RNASCP_edge34" class="edge"><title>RNASCP.ENRICHMENT_NETWORK&#45;&gt;RNASCP.GENERATE_REPORT</title>
<path fill="none" stroke="#a51877" d="M954.889,-145.552C921.193,-134.732 876.066,-120.241 840.791,-108.915"/>
<polygon fill="#a51877" stroke="#a51877" points="841.712,-105.534 831.121,-105.809 839.572,-112.199 841.712,-105.534"/>
</g>
<!-- RNASCP.CELL_CELL_INTERACTIONS&#45;&gt;RNASCP.GENERATE_REPORT -->
<g id="RNASCP_edge32" class="edge"><title>RNASCP.CELL_CELL_INTERACTIONS&#45;&gt;RNASCP.GENERATE_REPORT</title>
<path fill="none" stroke="#a51877" d="M607.601,-145.465C643.128,-134.557 690.7,-119.952 727.637,-108.611"/>
<polygon fill="#a51877" stroke="#a51877" points="728.736,-111.935 737.269,-105.654 726.682,-105.243 728.736,-111.935"/>
</g>
<!-- RNASCP.SUBTYPE_SCORE&#45;&gt;RNASCP.GENERATE_REPORT -->
<g id="RNASCP_edge36" class="edge"><title>RNASCP.SUBTYPE_SCORE&#45;&gt;RNASCP.GENERATE_REPORT</title>
<path fill="none" stroke="#a51877" d="M785,-143.697C785,-135.983 785,-126.712 785,-118.112"/>
<polygon fill="#a51877" stroke="#a51877" points="788.5,-118.104 785,-108.104 781.5,-118.104 788.5,-118.104"/>
</g>
<!-- RNASCP.GENERATE_REPORT&#45;&gt;Outputs -->
<g id="RNASCP_edge42" class="edge"><title>RNASCP.GENERATE_REPORT&#45;&gt;Outputs</title>
<path fill="none" stroke="black" stroke-dasharray="5,2" d="M747.493,-73.4647C719.396,-61.8269 681.136,-45.9792 653.13,-34.3793"/>
<polygon fill="black" stroke="black" points="654.263,-31.0604 643.685,-30.4672 651.585,-37.5276 654.263,-31.0604"/>
</g>
</g>
</svg>
